<svg width="28" height="26" viewBox="0 0 28 26" fill="none" xmlns="http://www.w3.org/2000/svg">
<g id="icon-park-outline:application-menu">
<path id="Vector" d="M5.89316 7.69444C6.52787 7.69444 7.13658 7.46032 7.58538 7.04357C8.03419 6.62682 8.28632 6.06159 8.28632 5.47222C8.28632 4.88285 8.03419 4.31762 7.58538 3.90087C7.13658 3.48413 6.52787 3.25 5.89316 3.25C5.25846 3.25 4.64975 3.48413 4.20094 3.90087C3.75214 4.31762 3.5 4.88285 3.5 5.47222C3.5 6.06159 3.75214 6.62682 4.20094 7.04357C4.64975 7.46032 5.25846 7.69444 5.89316 7.69444ZM14.2692 7.69444C14.9039 7.69444 15.5126 7.46032 15.9615 7.04357C16.4103 6.62682 16.6624 6.06159 16.6624 5.47222C16.6624 4.88285 16.4103 4.31762 15.9615 3.90087C15.5126 3.48413 14.9039 3.25 14.2692 3.25C13.6345 3.25 13.0258 3.48413 12.577 3.90087C12.1282 4.31762 11.8761 4.88285 11.8761 5.47222C11.8761 6.06159 12.1282 6.62682 12.577 7.04357C13.0258 7.46032 13.6345 7.69444 14.2692 7.69444ZM22.6453 7.69444C23.28 7.69444 23.8887 7.46032 24.3375 7.04357C24.7863 6.62682 25.0385 6.06159 25.0385 5.47222C25.0385 4.88285 24.7863 4.31762 24.3375 3.90087C23.8887 3.48413 23.28 3.25 22.6453 3.25C22.0106 3.25 21.4019 3.48413 20.9531 3.90087C20.5043 4.31762 20.2521 4.88285 20.2521 5.47222C20.2521 6.06159 20.5043 6.62682 20.9531 7.04357C21.4019 7.46032 22.0106 7.69444 22.6453 7.69444ZM5.89316 15.4722C6.52787 15.4722 7.13658 15.2381 7.58538 14.8213C8.03419 14.4046 8.28632 13.8394 8.28632 13.25C8.28632 12.6606 8.03419 12.0954 7.58538 11.6787C7.13658 11.2619 6.52787 11.0278 5.89316 11.0278C5.25846 11.0278 4.64975 11.2619 4.20094 11.6787C3.75214 12.0954 3.5 12.6606 3.5 13.25C3.5 13.8394 3.75214 14.4046 4.20094 14.8213C4.64975 15.2381 5.25846 15.4722 5.89316 15.4722ZM14.2692 15.4722C14.9039 15.4722 15.5126 15.2381 15.9615 14.8213C16.4103 14.4046 16.6624 13.8394 16.6624 13.25C16.6624 12.6606 16.4103 12.0954 15.9615 11.6787C15.5126 11.2619 14.9039 11.0278 14.2692 11.0278C13.6345 11.0278 13.0258 11.2619 12.577 11.6787C12.1282 12.0954 11.8761 12.6606 11.8761 13.25C11.8761 13.8394 12.1282 14.4046 12.577 14.8213C13.0258 15.2381 13.6345 15.4722 14.2692 15.4722ZM22.6453 15.4722C23.28 15.4722 23.8887 15.2381 24.3375 14.8213C24.7863 14.4046 25.0385 13.8394 25.0385 13.25C25.0385 12.6606 24.7863 12.0954 24.3375 11.6787C23.8887 11.2619 23.28 11.0278 22.6453 11.0278C22.0106 11.0278 21.4019 11.2619 20.9531 11.6787C20.5043 12.0954 20.2521 12.6606 20.2521 13.25C20.2521 13.8394 20.5043 14.4046 20.9531 14.8213C21.4019 15.2381 22.0106 15.4722 22.6453 15.4722ZM5.89316 23.25C6.52787 23.25 7.13658 23.0159 7.58538 22.5991C8.03419 22.1824 8.28632 21.6171 8.28632 21.0278C8.28632 20.4384 8.03419 19.8732 7.58538 19.4564C7.13658 19.0397 6.52787 18.8056 5.89316 18.8056C5.25846 18.8056 4.64975 19.0397 4.20094 19.4564C3.75214 19.8732 3.5 20.4384 3.5 21.0278C3.5 21.6171 3.75214 22.1824 4.20094 22.5991C4.64975 23.0159 5.25846 23.25 5.89316 23.25ZM14.2692 23.25C14.9039 23.25 15.5126 23.0159 15.9615 22.5991C16.4103 22.1824 16.6624 21.6171 16.6624 21.0278C16.6624 20.4384 16.4103 19.8732 15.9615 19.4564C15.5126 19.0397 14.9039 18.8056 14.2692 18.8056C13.6345 18.8056 13.0258 19.0397 12.577 19.4564C12.1282 19.8732 11.8761 20.4384 11.8761 21.0278C11.8761 21.6171 12.1282 22.1824 12.577 22.5991C13.0258 23.0159 13.6345 23.25 14.2692 23.25ZM22.6453 23.25C23.28 23.25 23.8887 23.0159 24.3375 22.5991C24.7863 22.1824 25.0385 21.6171 25.0385 21.0278C25.0385 20.4384 24.7863 19.8732 24.3375 19.4564C23.8887 19.0397 23.28 18.8056 22.6453 18.8056C22.0106 18.8056 21.4019 19.0397 20.9531 19.4564C20.5043 19.8732 20.2521 20.4384 20.2521 21.0278C20.2521 21.6171 20.5043 22.1824 20.9531 22.5991C21.4019 23.0159 22.0106 23.25 22.6453 23.25Z" fill="#41508B"/>
</g>
</svg>
