<svg width="24" height="24" viewBox="0 0 24 24" fill="none" xmlns="http://www.w3.org/2000/svg">
<g id="bi:cloud-rain-fill" clip-path="url(#clip0_18_68)">
<path id="Vector" d="M6.23701 18.0375C6.33051 18.0687 6.41694 18.118 6.49138 18.1826C6.56581 18.2472 6.62678 18.3258 6.67081 18.414C6.71483 18.5022 6.74104 18.5982 6.74793 18.6965C6.75483 18.7948 6.74228 18.8935 6.71101 18.987L5.96101 21.237C5.93276 21.3339 5.88526 21.424 5.82135 21.5021C5.75745 21.5801 5.67845 21.6445 5.58909 21.6913C5.49972 21.7382 5.40183 21.7665 5.30127 21.7746C5.20071 21.7827 5.09955 21.7704 5.00384 21.7385C4.90812 21.7066 4.81984 21.6557 4.74425 21.5889C4.66867 21.5221 4.60734 21.4407 4.56394 21.3496C4.52054 21.2586 4.49597 21.1597 4.49168 21.0589C4.4874 20.9581 4.50349 20.8574 4.53901 20.763L5.28901 18.513C5.35168 18.3242 5.48676 18.1681 5.66454 18.0789C5.84232 17.9898 6.04824 17.9749 6.23701 18.0375ZM10.737 18.0375C10.8305 18.0687 10.9169 18.118 10.9914 18.1826C11.0658 18.2472 11.1268 18.3258 11.1708 18.414C11.2148 18.5022 11.241 18.5982 11.2479 18.6965C11.2548 18.7948 11.2423 18.8935 11.211 18.987L9.71101 23.487C9.68276 23.5839 9.63526 23.674 9.57135 23.7521C9.50745 23.8301 9.42845 23.8945 9.33909 23.9413C9.24972 23.9882 9.15183 24.0165 9.05127 24.0246C8.95071 24.0327 8.84955 24.0204 8.75384 23.9885C8.65812 23.9566 8.56984 23.9057 8.49425 23.8389C8.41867 23.7721 8.35734 23.6907 8.31394 23.5996C8.27054 23.5086 8.24597 23.4097 8.24168 23.3089C8.2374 23.2081 8.25349 23.1074 8.28901 23.013L9.78901 18.513C9.85168 18.3242 9.98676 18.1681 10.1645 18.0789C10.3423 17.9898 10.5482 17.9749 10.737 18.0375ZM15.237 18.0375C15.3305 18.0687 15.4169 18.118 15.4914 18.1826C15.5658 18.2472 15.6268 18.3258 15.6708 18.414C15.7148 18.5022 15.741 18.5982 15.7479 18.6965C15.7548 18.7948 15.7423 18.8935 15.711 18.987L14.961 21.237C14.9328 21.3339 14.8853 21.424 14.8214 21.5021C14.7574 21.5801 14.6784 21.6445 14.5891 21.6913C14.4997 21.7382 14.4018 21.7665 14.3013 21.7746C14.2007 21.7827 14.0995 21.7704 14.0038 21.7385C13.9081 21.7066 13.8198 21.6557 13.7443 21.5889C13.6687 21.5221 13.6073 21.4407 13.5639 21.3496C13.5205 21.2586 13.496 21.1597 13.4917 21.0589C13.4874 20.9581 13.5035 20.8574 13.539 20.763L14.289 18.513C14.3517 18.3242 14.4868 18.1681 14.6645 18.0789C14.8423 17.9898 15.0482 17.9749 15.237 18.0375ZM19.737 18.0375C19.8305 18.0687 19.9169 18.118 19.9914 18.1826C20.0658 18.2472 20.1268 18.3258 20.1708 18.414C20.2148 18.5022 20.241 18.5982 20.2479 18.6965C20.2548 18.7948 20.2423 18.8935 20.211 18.987L18.711 23.487C18.6828 23.5839 18.6353 23.674 18.5714 23.7521C18.5074 23.8301 18.4284 23.8945 18.3391 23.9413C18.2497 23.9882 18.1518 24.0165 18.0513 24.0246C17.9507 24.0327 17.8495 24.0204 17.7538 23.9885C17.6581 23.9566 17.5698 23.9057 17.4943 23.8389C17.4187 23.7721 17.3573 23.6907 17.3139 23.5996C17.2705 23.5086 17.246 23.4097 17.2417 23.3089C17.2374 23.2081 17.2535 23.1074 17.289 23.013L18.789 18.513C18.8517 18.3242 18.9868 18.1681 19.1645 18.0789C19.3423 17.9898 19.5482 17.9749 19.737 18.0375ZM20.1075 7.54051C19.796 5.97025 18.9903 4.54082 17.8083 3.46122C16.6263 2.38163 15.1299 1.70848 13.5379 1.54022C11.9459 1.37195 10.3418 1.71739 8.9602 2.52602C7.57859 3.33465 6.49189 4.56407 5.85901 6.03451C5.14926 5.95274 4.4303 6.0167 3.74613 6.22247C3.06197 6.42823 2.427 6.77147 1.8801 7.23117C1.3332 7.69087 0.885887 8.25736 0.565538 8.89595C0.245189 9.53454 0.0585491 10.2318 0.0170454 10.945C-0.0244584 11.6583 0.0800474 12.3725 0.324164 13.0439C0.568281 13.7153 0.946872 14.3299 1.43676 14.8499C1.92664 15.3699 2.51752 15.7845 3.1732 16.0682C3.82888 16.352 4.53557 16.4989 5.25001 16.5H19.5C20.6417 16.5013 21.7412 16.0686 22.5757 15.2896C23.4103 14.5106 23.9176 13.4435 23.9948 12.3044C24.0721 11.1654 23.7135 10.0396 22.9917 9.15501C22.2699 8.27046 21.2389 7.69333 20.1075 7.54051Z" fill="#56A0EE"/>
</g>
<defs>
<clipPath id="clip0_18_68">
<rect width="24" height="24" fill="white"/>
</clipPath>
</defs>
</svg>
