<svg width="15" height="15" viewBox="0 0 15 15" fill="none" xmlns="http://www.w3.org/2000/svg">
<g id="mingcute:snow-line" clip-path="url(#clip0_19_72)">
<g id="Group">
<path id="Vector" fill-rule="evenodd" clip-rule="evenodd" d="M7.5 1.25C7.66576 1.25 7.82473 1.31585 7.94194 1.43306C8.05915 1.55027 8.125 1.70924 8.125 1.875V2.47625L8.53375 2.26C8.68028 2.18251 8.8516 2.1664 9.01001 2.21522C9.16842 2.26403 9.30094 2.37378 9.37844 2.52031C9.45593 2.66684 9.47204 2.83816 9.42322 2.99657C9.3744 3.15498 9.26466 3.28751 9.11812 3.365L8.125 3.89V5.07875C8.57188 5.19375 8.97 5.42875 9.28375 5.74812L10.3138 5.15375L10.2719 4.03125C10.2657 3.86557 10.3255 3.70421 10.4383 3.58266C10.551 3.46112 10.7074 3.38934 10.8731 3.38313C11.0388 3.37691 11.2002 3.43676 11.3217 3.54952C11.4433 3.66228 11.515 3.8187 11.5212 3.98438L11.5381 4.44687L12.0588 4.14625C12.1299 4.10456 12.2085 4.07735 12.2902 4.06619C12.3718 4.05502 12.4549 4.06012 12.5346 4.08119C12.6143 4.10226 12.689 4.13888 12.7545 4.18895C12.82 4.23901 12.8749 4.30154 12.9161 4.37292C12.9573 4.4443 12.984 4.52313 12.9946 4.60487C13.0053 4.68661 12.9996 4.76964 12.978 4.84918C12.9564 4.92873 12.9193 5.00322 12.8688 5.06836C12.8183 5.1335 12.7554 5.18801 12.6838 5.22875L12.1631 5.52875L12.555 5.775C12.6245 5.81866 12.6848 5.87559 12.7323 5.94254C12.7798 6.00948 12.8137 6.08513 12.8319 6.16516C12.8502 6.2452 12.8526 6.32805 12.8388 6.40898C12.8251 6.48992 12.7955 6.56736 12.7519 6.63688C12.7082 6.70639 12.6513 6.76663 12.5843 6.81415C12.5174 6.86166 12.4417 6.89553 12.3617 6.91381C12.2817 6.93209 12.1988 6.93443 12.1179 6.9207C12.037 6.90696 11.9595 6.87741 11.89 6.83375L10.9388 6.23625L9.90937 6.83C10.0312 7.26815 10.0312 7.73122 9.90937 8.16937L10.9388 8.76375L11.89 8.16625C12.0304 8.07807 12.2001 8.04927 12.3617 8.08619C12.5233 8.12311 12.6637 8.22273 12.7519 8.36312C12.8401 8.50352 12.8689 8.6732 12.8319 8.83484C12.795 8.99647 12.6954 9.13682 12.555 9.225L12.1638 9.47062L12.6838 9.77125C12.7554 9.81199 12.8183 9.8665 12.8688 9.93164C12.9193 9.99678 12.9564 10.0713 12.978 10.1508C12.9996 10.2304 13.0053 10.3134 12.9946 10.3951C12.984 10.4769 12.9573 10.5557 12.9161 10.6271C12.8749 10.6985 12.82 10.761 12.7545 10.8111C12.689 10.8611 12.6143 10.8977 12.5346 10.9188C12.4549 10.9399 12.3718 10.945 12.2902 10.9338C12.2085 10.9226 12.1299 10.8954 12.0588 10.8537L11.5387 10.5538L11.5212 11.0156C11.515 11.1813 11.4433 11.3377 11.3217 11.4505C11.2002 11.5632 11.0388 11.6231 10.8731 11.6169C10.7074 11.6107 10.551 11.5389 10.4383 11.4173C10.3255 11.2958 10.2657 11.1344 10.2719 10.9688L10.3138 9.84625L9.28375 9.25187C8.97 9.57063 8.57125 9.80625 8.125 9.92125V11.11L9.11812 11.635C9.26466 11.7125 9.3744 11.845 9.42322 12.0034C9.47204 12.1618 9.45593 12.3332 9.37844 12.4797C9.30094 12.6262 9.16842 12.736 9.01001 12.7848C8.8516 12.8336 8.68028 12.8175 8.53375 12.74L8.125 12.5238V13.125C8.125 13.2908 8.05915 13.4497 7.94194 13.5669C7.82473 13.6842 7.66576 13.75 7.5 13.75C7.33424 13.75 7.17527 13.6842 7.05806 13.5669C6.94085 13.4497 6.875 13.2908 6.875 13.125V12.5238L6.46625 12.74C6.39369 12.7784 6.31429 12.8021 6.23258 12.8098C6.15086 12.8174 6.06843 12.809 5.98999 12.7848C5.91156 12.7606 5.83865 12.7212 5.77543 12.6689C5.71222 12.6165 5.65993 12.5522 5.62156 12.4797C5.58319 12.4071 5.55949 12.3277 5.5518 12.246C5.54412 12.1643 5.55261 12.0819 5.57678 12.0034C5.60095 11.925 5.64034 11.8521 5.69268 11.7889C5.74503 11.7257 5.80932 11.6734 5.88188 11.635L6.875 11.11V9.92125C6.43498 9.80751 6.03434 9.57585 5.71625 9.25125L4.68625 9.84625L4.72813 10.9688C4.73116 11.0508 4.71801 11.1326 4.68942 11.2096C4.66084 11.2865 4.61737 11.3571 4.56151 11.4172C4.50565 11.4774 4.43849 11.526 4.36386 11.5602C4.28923 11.5944 4.2086 11.6135 4.12656 11.6166C4.04453 11.6196 3.9627 11.6064 3.88574 11.5779C3.80879 11.5493 3.73822 11.5058 3.67807 11.4499C3.61791 11.3941 3.56935 11.3269 3.53515 11.2523C3.50095 11.1777 3.48179 11.097 3.47875 11.015L3.46188 10.5531L2.94125 10.8531C2.8701 10.8971 2.79084 10.9264 2.70817 10.9392C2.62549 10.9521 2.54108 10.9481 2.45995 10.9277C2.37881 10.9073 2.3026 10.8708 2.23583 10.8204C2.16906 10.77 2.11309 10.7067 2.07124 10.6343C2.02939 10.5618 2.00251 10.4817 1.9922 10.3987C1.98188 10.3157 1.98834 10.2314 2.01119 10.1509C2.03404 10.0704 2.07281 9.99537 2.12521 9.93015C2.17761 9.86493 2.24258 9.8109 2.31625 9.77125L2.83688 9.47062L2.445 9.22437C2.30832 9.13454 2.2123 8.99471 2.17754 8.83489C2.14278 8.67507 2.17206 8.50799 2.25909 8.36951C2.34612 8.23103 2.48397 8.13218 2.64305 8.09418C2.80214 8.05618 2.96978 8.08205 3.11 8.16625L4.06125 8.76375L5.09063 8.16937C4.96905 7.73141 4.96905 7.26859 5.09063 6.83063L4.06125 6.23688L3.11 6.83375C2.96978 6.91795 2.80214 6.94382 2.64305 6.90582C2.48397 6.86782 2.34612 6.76897 2.25909 6.63049C2.17206 6.49201 2.14278 6.32493 2.17754 6.16511C2.2123 6.00529 2.30832 5.86546 2.445 5.77563L2.83688 5.52938L2.31625 5.22937C2.17262 5.14649 2.06779 5.00995 2.02484 4.84978C1.98188 4.68962 2.00431 4.51894 2.08719 4.37531C2.17007 4.23168 2.30661 4.12686 2.46678 4.0839C2.62695 4.04094 2.79762 4.06337 2.94125 4.14625L3.46188 4.44687L3.47875 3.98438C3.48497 3.8187 3.55674 3.66228 3.67829 3.54952C3.73847 3.49369 3.80906 3.45026 3.88603 3.42171C3.963 3.39316 4.04484 3.38005 4.12688 3.38313C4.20891 3.3862 4.28954 3.40541 4.36415 3.43965C4.43876 3.47388 4.5059 3.52248 4.56173 3.58266C4.61756 3.64285 4.66099 3.71344 4.68954 3.79041C4.71809 3.86738 4.7312 3.94921 4.72813 4.03125L4.68625 5.15375L5.71625 5.74875C6.03434 5.42415 6.43498 5.19249 6.875 5.07875V3.89L5.88188 3.365C5.73534 3.28751 5.6256 3.15498 5.57678 2.99657C5.52796 2.83816 5.54407 2.66684 5.62156 2.52031C5.69906 2.37378 5.83158 2.26403 5.98999 2.21522C6.1484 2.1664 6.31972 2.18251 6.46625 2.26L6.875 2.47625V1.875C6.875 1.70924 6.94085 1.55027 7.05806 1.43306C7.17527 1.31585 7.33424 1.25 7.5 1.25ZM7.5 8.75C7.83152 8.75 8.14946 8.6183 8.38388 8.38388C8.6183 8.14946 8.75 7.83152 8.75 7.5C8.75 7.16848 8.6183 6.85054 8.38388 6.61612C8.14946 6.3817 7.83152 6.25 7.5 6.25C7.16848 6.25 6.85054 6.3817 6.61612 6.61612C6.3817 6.85054 6.25 7.16848 6.25 7.5C6.25 7.83152 6.3817 8.14946 6.61612 8.38388C6.85054 8.6183 7.16848 8.75 7.5 8.75Z" fill="#56A0EE"/>
</g>
</g>
<defs>
<clipPath id="clip0_19_72">
<rect width="15" height="15" fill="white"/>
</clipPath>
</defs>
</svg>
