<svg width="18" height="18" viewBox="0 0 18 18" fill="none" xmlns="http://www.w3.org/2000/svg">
<g id="bxs:hide">
<path id="Vector" d="M6.05475 9.14551L3.159 6.24976C2.019 7.49251 1.587 8.73751 1.5795 8.76301L1.5 9.00001L1.57875 9.23701C1.59525 9.28726 3.31575 14.25 9.0405 14.25C9.73725 14.25 10.3717 14.1735 10.9545 14.0453L8.895 11.9858C8.15346 11.9494 7.45196 11.6385 6.92699 11.1135C6.40201 10.5885 6.0911 9.88704 6.05475 9.14551ZM9.0405 3.75001C7.64925 3.75001 6.50925 4.05301 5.559 4.49851L2.78025 1.71976L1.71975 2.78026L15.2197 16.2803L16.2803 15.2198L13.8068 12.7463C15.7853 11.2815 16.491 9.26851 16.5015 9.23701L16.5802 9.00001L16.5015 8.76301C16.485 8.71276 14.7653 3.75001 9.0405 3.75001ZM10.47 9.40951C10.6103 8.90176 10.491 8.33026 10.101 7.93951C9.711 7.54876 9.13875 7.43026 8.631 7.57051L7.5 6.43951C7.96347 6.15449 8.49641 6.00245 9.0405 6.00001C10.695 6.00001 12.0405 7.34551 12.0405 9.00001C12.0383 9.544 11.8859 10.0768 11.6003 10.5398L10.47 9.40951Z" fill="#41508B"/>
</g>
</svg>
