<svg width="18" height="18" viewBox="0 0 18 18" fill="none" xmlns="http://www.w3.org/2000/svg">
<g id="Frame">
<path id="Vector" d="M8.99999 2.0625C8.65093 2.0624 8.31044 2.17053 8.02541 2.37202C7.74039 2.5735 7.52487 2.85841 7.40849 3.1875C7.35703 3.32582 7.25325 3.43837 7.11954 3.50087C6.98586 3.56338 6.83293 3.57084 6.69378 3.52163C6.55467 3.47243 6.44042 3.37051 6.37573 3.23786C6.31104 3.1052 6.30109 2.95243 6.348 2.8125C6.54192 2.264 6.90111 1.7891 7.37613 1.45321C7.85115 1.11732 8.41859 0.936951 9.00039 0.936951C9.58216 0.936951 10.1496 1.11732 10.6246 1.45321C11.0996 1.7891 11.4588 2.264 11.6527 2.8125C11.7025 2.95323 11.6943 3.10795 11.6299 3.24263C11.5656 3.3773 11.4504 3.4809 11.3096 3.53063C11.1689 3.58035 11.0142 3.57214 10.8795 3.50779C10.7448 3.44344 10.6412 3.32823 10.5915 3.1875C10.4751 2.85847 10.2595 2.57362 9.97448 2.37215C9.68946 2.17069 9.34904 2.06251 8.99999 2.0625ZM2.0625 4.5C2.0625 4.35082 2.12176 4.20774 2.22725 4.10224C2.33274 3.99677 2.47582 3.93748 2.625 3.93748H15.375C15.5242 3.93748 15.6673 3.99677 15.7728 4.10224C15.8782 4.20774 15.9375 4.35082 15.9375 4.5C15.9375 4.64918 15.8782 4.79226 15.7728 4.89777C15.6673 5.00323 15.5242 5.06248 15.375 5.06248H2.625C2.47582 5.06248 2.33274 5.00323 2.22725 4.89777C2.12176 4.79226 2.0625 4.64918 2.0625 4.5ZM4.43625 6.33751C4.4263 6.18862 4.35764 6.04977 4.2453 5.95154C4.13301 5.85327 3.98625 5.80368 3.83737 5.81364C3.68848 5.82355 3.54965 5.89225 3.45141 6.00458C3.35316 6.11688 3.30356 6.2636 3.3135 6.41248L3.6615 11.6265C3.72525 12.588 3.77701 13.365 3.89849 13.9755C4.02526 14.6092 4.23976 15.1387 4.68373 15.5535C5.12701 15.969 5.66999 16.1482 6.31126 16.2315C6.92775 16.3125 7.70626 16.3125 8.67073 16.3125H9.33001C10.2937 16.3125 11.073 16.3125 11.6895 16.2315C12.33 16.1482 12.873 15.969 13.317 15.5535C13.7603 15.1387 13.9747 14.6085 14.1015 13.9755C14.223 13.365 14.274 12.588 14.3385 11.6265L14.6865 6.41248C14.6964 6.2636 14.6468 6.11688 14.5486 6.00458C14.4503 5.89225 14.3115 5.82355 14.1626 5.81364C14.0137 5.80368 13.867 5.85327 13.7547 5.95154C13.6424 6.04977 13.5737 6.18862 13.5638 6.33751L13.2187 11.5125C13.1513 12.5227 13.1033 13.2263 12.9983 13.755C12.8955 14.2688 12.753 14.5403 12.5483 14.7323C12.3427 14.9242 12.0623 15.0487 11.5432 15.1163C11.0085 15.186 10.3035 15.1875 9.29026 15.1875H8.70975C7.69726 15.1875 6.99225 15.186 6.45673 15.1163C5.93775 15.0487 5.65724 14.9242 5.45175 14.7323C5.24699 14.5403 5.10449 14.2688 5.00175 13.755C4.89676 13.2263 4.84875 12.5227 4.78126 11.5125L4.43625 6.33751Z" fill="#7E88A6"/>
<path id="Vector_2" d="M7.06875 7.69048C7.21712 7.67564 7.36534 7.72027 7.4808 7.81464C7.59626 7.90901 7.66954 8.04537 7.68449 8.19375L8.05948 11.9437C8.0705 12.09 8.02385 12.2349 7.92959 12.3473C7.83532 12.4597 7.70084 12.5309 7.55486 12.5455C7.40887 12.5602 7.26292 12.5173 7.14813 12.4259C7.03337 12.3344 6.95887 12.2018 6.9405 12.0563L6.56548 8.30626C6.55064 8.15786 6.59527 8.00967 6.68964 7.89421C6.78401 7.77872 6.92037 7.70547 7.06875 7.69048ZM11.4345 8.30626C11.4455 8.15995 11.3988 8.01514 11.3046 7.9027C11.2103 7.79029 11.0758 7.71913 10.9299 7.70448C10.7839 7.68978 10.6379 7.73272 10.5231 7.82412C10.4084 7.91555 10.3339 8.04817 10.3155 8.19375L9.94048 11.9437C9.9295 12.09 9.97615 12.2349 10.0704 12.3473C10.1647 12.4597 10.2992 12.5309 10.4451 12.5455C10.5911 12.5602 10.7371 12.5173 10.8519 12.4259C10.9666 12.3344 11.0411 12.2018 11.0595 12.0563L11.4345 8.30626Z" fill="#7E88A6"/>
</g>
</svg>
