<svg width="15" height="15" viewBox="0 0 15 15" fill="none" xmlns="http://www.w3.org/2000/svg">
<path id="Vector" d="M13.6611 0.832391C13.4149 0.573528 13.1194 0.366541 12.792 0.223623C12.4647 0.0807048 12.112 0.00474411 11.7548 0.000215206C11.3976 -0.0043137 11.0431 0.0626807 10.7122 0.197252C10.3813 0.331824 10.0806 0.531252 9.82798 0.783791L1.39048 9.22129C1.09557 9.51611 0.890771 9.88887 0.800083 10.2959L0.0107827 13.8509C-0.00568761 13.9248 -0.00325662 14.0016 0.0178504 14.0743C0.0389574 14.147 0.0780584 14.2132 0.131535 14.2667C0.185012 14.3203 0.251137 14.3595 0.32379 14.3807C0.396444 14.402 0.473278 14.4045 0.547183 14.3882L4.08148 13.6025C4.50218 13.5088 4.88744 13.2972 5.19208 12.9923L13.6143 4.57009C14.1079 4.07621 14.3891 3.409 14.3979 2.71076C14.4066 2.01251 14.1422 1.33848 13.6611 0.832391ZM10.4643 1.42009C10.6289 1.25309 10.8249 1.12032 11.0411 1.02942C11.2573 0.938514 11.4893 0.891282 11.7238 0.890441C11.9583 0.889601 12.1906 0.935168 12.4074 1.02452C12.6242 1.11387 12.8212 1.24523 12.987 1.41105C13.1528 1.57686 13.2842 1.77385 13.3736 1.99066C13.4629 2.20746 13.5085 2.43981 13.5076 2.6743C13.5068 2.9088 13.4596 3.14081 13.3687 3.35697C13.2778 3.57313 13.145 3.76917 12.978 3.93379L12.3741 4.53769L9.86038 2.02489L10.4643 1.42009ZM9.22408 2.66209L11.7378 5.17489L4.55578 12.3569C4.37214 12.5408 4.13985 12.6685 3.88618 12.725L1.04218 13.3568L1.67938 10.4921C1.73248 10.2518 1.85308 10.0322 2.02678 9.85849L9.22408 2.66209Z" fill="#7E88A6"/>
</svg>
