<svg width="20" height="20" viewBox="0 0 20 20" fill="none" xmlns="http://www.w3.org/2000/svg">
<g id="devicon:google" clip-path="url(#clip0_3_20)">
<path id="Vector" d="M6.96718 0.65781C4.96887 1.35104 3.24553 2.66682 2.05029 4.41187C0.855051 6.15693 0.250915 8.23928 0.32662 10.3531C0.402325 12.4669 1.15388 14.5007 2.47089 16.1557C3.78791 17.8108 5.60096 18.9999 7.64374 19.5484C9.29987 19.9758 11.035 19.9945 12.7 19.6031C14.2083 19.2643 15.6028 18.5396 16.7469 17.5C17.9376 16.3849 18.8019 14.9664 19.2469 13.3969C19.7303 11.6901 19.8164 9.89522 19.4984 8.15H10.1984V12.0078H15.5844C15.4767 12.6231 15.2461 13.2104 14.9062 13.7344C14.5663 14.2585 14.1241 14.7086 13.6062 15.0578C12.9486 15.493 12.2072 15.7858 11.4297 15.9172C10.6499 16.0622 9.85008 16.0622 9.0703 15.9172C8.27992 15.754 7.53224 15.4277 6.87499 14.9594C5.81897 14.2119 5.02605 13.1499 4.60937 11.925C4.18576 10.6772 4.18576 9.3244 4.60937 8.07656C4.90597 7.2019 5.39629 6.40552 6.04374 5.74687C6.78467 4.97929 7.7227 4.43062 8.75492 4.16105C9.78715 3.89149 10.8737 3.91145 11.8953 4.21875C12.6934 4.46363 13.4233 4.89168 14.0266 5.46875C14.6338 4.86458 15.2401 4.25885 15.8453 3.65156C16.1578 3.325 16.4984 3.01406 16.8062 2.67968C15.8852 1.82268 14.8041 1.15579 13.625 0.717185C11.4777 -0.0625188 9.12808 -0.0834726 6.96718 0.65781Z" fill="white"/>
<path id="Vector_2" d="M6.96718 0.657806C9.12791 -0.08398 11.4775 -0.0635778 13.625 0.715618C14.8044 1.1572 15.8849 1.82731 16.8047 2.68749C16.4922 3.02187 16.1625 3.33437 15.8437 3.65937C15.2375 4.26458 14.6318 4.8677 14.0266 5.46874C13.4233 4.89168 12.6934 4.46362 11.8953 4.21874C10.874 3.91037 9.78752 3.88926 8.75502 4.15772C7.72253 4.42618 6.78392 4.97384 6.04218 5.74062C5.39473 6.39927 4.90441 7.19564 4.60781 8.07031L1.36874 5.56249C2.52813 3.26337 4.53554 1.50472 6.96718 0.657806Z" fill="#E33629"/>
<path id="Vector_3" d="M0.509389 8.04688C0.683357 7.18402 0.972398 6.34843 1.36876 5.5625L4.60783 8.07656C4.18422 9.3244 4.18422 10.6772 4.60783 11.925C3.52866 12.7583 2.44897 13.5958 1.36876 14.4375C0.376812 12.463 0.0742836 10.2133 0.509389 8.04688Z" fill="#F8BD00"/>
<path id="Vector_4" d="M10.1984 8.14844H19.4984C19.8164 9.89366 19.7303 11.6885 19.2469 13.3953C18.8019 14.9648 17.9376 16.3834 16.7469 17.4984C15.7016 16.6828 14.6516 15.8734 13.6063 15.0578C14.1245 14.7082 14.5668 14.2576 14.9067 13.733C15.2467 13.2084 15.4771 12.6205 15.5844 12.0047H10.1984C10.1969 10.7203 10.1984 9.43437 10.1984 8.14844Z" fill="#587DBD"/>
<path id="Vector_5" d="M1.36719 14.4375C2.4474 13.6042 3.52708 12.7667 4.60625 11.925C5.02376 13.1503 5.81782 14.2123 6.875 14.9594C7.5343 15.4256 8.28359 15.7491 9.075 15.9094C9.85477 16.0544 10.6546 16.0544 11.4344 15.9094C12.2119 15.7779 12.9533 15.4852 13.6109 15.05C14.6562 15.8656 15.7063 16.675 16.7516 17.4906C15.6076 18.5308 14.2132 19.2561 12.7047 19.5953C11.0397 19.9867 9.30457 19.9679 7.64844 19.5406C6.3386 19.1909 5.11512 18.5744 4.05469 17.7297C2.93239 16.8385 2.01568 15.7155 1.36719 14.4375Z" fill="#319F43"/>
</g>
<defs>
<clipPath id="clip0_3_20">
<rect width="20" height="20" fill="white"/>
</clipPath>
</defs>
</svg>
