<svg width="16" height="16" viewBox="0 0 16 16" fill="none" xmlns="http://www.w3.org/2000/svg">
<g id="mingcute:search-line" clip-path="url(#clip0_3_27)">
<g id="Group">
<path id="Vector" fill-rule="evenodd" clip-rule="evenodd" d="M7 1.33334C6.0964 1.33342 5.20591 1.54959 4.40284 1.96381C3.59977 2.37803 2.9074 2.97829 2.38349 3.71451C1.85959 4.45074 1.51934 5.30158 1.39114 6.19604C1.26294 7.09051 1.3505 8.00266 1.64652 8.8564C1.94254 9.71014 2.43843 10.4807 3.09283 11.1038C3.74722 11.7269 4.54114 12.1845 5.40834 12.4384C6.27555 12.6923 7.1909 12.7351 8.07802 12.5633C8.96513 12.3915 9.7983 12.01 10.508 11.4507L12.9427 13.8853C13.0684 14.0068 13.2368 14.074 13.4116 14.0725C13.5864 14.0709 13.7536 14.0008 13.8772 13.8772C14.0008 13.7536 14.0709 13.5864 14.0725 13.4116C14.074 13.2368 14.0068 13.0684 13.8853 12.9427L11.4507 10.508C12.1093 9.67243 12.5194 8.66828 12.6341 7.6105C12.7487 6.55271 12.5632 5.48403 12.0988 4.52674C11.6344 3.56946 10.9099 2.76225 10.0082 2.1975C9.10648 1.63275 8.06398 1.33327 7 1.33334ZM2.66667 7.00001C2.66667 5.85074 3.12321 4.74854 3.93587 3.93588C4.74853 3.12322 5.85073 2.66668 7 2.66668C8.14927 2.66668 9.25147 3.12322 10.0641 3.93588C10.8768 4.74854 11.3333 5.85074 11.3333 7.00001C11.3333 8.14928 10.8768 9.25148 10.0641 10.0641C9.25147 10.8768 8.14927 11.3333 7 11.3333C5.85073 11.3333 4.74853 10.8768 3.93587 10.0641C3.12321 9.25148 2.66667 8.14928 2.66667 7.00001Z" fill="#F8F8F8"/>
</g>
</g>
<defs>
<clipPath id="clip0_3_27">
<rect width="16" height="16" fill="white"/>
</clipPath>
</defs>
</svg>
